<svg width="152" height="41" viewBox="0 0 152 41" fill="none" xmlns="http://www.w3.org/2000/svg">
<path d="M39.2686 14.237V11.2453H53.3642V14.237H48.1098V28.4081H44.523V14.237H39.2686ZM57.5376 28.6511C56.7163 28.6511 55.9844 28.5086 55.3419 28.2237C54.6994 27.9332 54.191 27.5058 53.8167 26.9415C53.448 26.3717 53.2636 25.6621 53.2636 24.8129C53.2636 24.0978 53.3949 23.4972 53.6575 23.0112C53.9201 22.5251 54.2776 22.134 54.7302 21.8379C55.1827 21.5418 55.6967 21.3184 56.2721 21.1675C56.8532 21.0167 57.4621 20.9105 58.099 20.8491C58.8477 20.7709 59.4511 20.6982 59.9092 20.6312C60.3673 20.5586 60.6997 20.4524 60.9064 20.3127C61.1131 20.1731 61.2165 19.9664 61.2165 19.6926V19.6423C61.2165 19.1116 61.0489 18.7009 60.7137 18.4104C60.3841 18.1199 59.9148 17.9746 59.3058 17.9746C58.6633 17.9746 58.1521 18.1171 57.7722 18.402C57.3923 18.6814 57.1409 19.0333 57.018 19.4579L53.7162 19.1898C53.8838 18.4076 54.2134 17.7316 54.705 17.1618C55.1967 16.5863 55.8308 16.1449 56.6074 15.8377C57.3895 15.5248 58.2946 15.3684 59.3226 15.3684C60.0377 15.3684 60.7221 15.4522 61.3757 15.6198C62.035 15.7874 62.6188 16.0472 63.1272 16.3991C63.6412 16.7511 64.0462 17.2037 64.3423 17.7568C64.6385 18.3043 64.7865 18.9607 64.7865 19.7261V28.4081H61.4009V26.6231H61.3003C61.0936 27.0253 60.817 27.3801 60.4707 27.6874C60.1243 27.9891 59.7081 28.2265 59.222 28.3997C58.7359 28.5673 58.1745 28.6511 57.5376 28.6511ZM58.56 26.1873C59.0851 26.1873 59.5488 26.084 59.9511 25.8772C60.3533 25.6649 60.669 25.38 60.8981 25.0225C61.1271 24.6649 61.2416 24.2598 61.2416 23.8073V22.4413C61.1299 22.514 60.9763 22.581 60.7807 22.6425C60.5908 22.6983 60.3757 22.7514 60.1355 22.8017C59.8952 22.8464 59.655 22.8883 59.4147 22.9274C59.1745 22.9609 58.9566 22.9916 58.7611 23.0196C58.3421 23.081 57.9761 23.1788 57.6633 23.3129C57.3504 23.447 57.1074 23.6285 56.9342 23.8576C56.761 24.0811 56.6744 24.3604 56.6744 24.6956C56.6744 25.1817 56.8504 25.5532 57.2024 25.8102C57.5599 26.0616 58.0124 26.1873 58.56 26.1873ZM78.2662 19.2065L74.9979 19.4077C74.942 19.1283 74.8219 18.8769 74.6375 18.6534C74.4531 18.4244 74.2101 18.2428 73.9084 18.1087C73.6123 17.9691 73.2576 17.8992 72.8441 17.8992C72.291 17.8992 71.8245 18.0165 71.4446 18.2512C71.0647 18.4802 70.8748 18.7875 70.8748 19.173C70.8748 19.4803 70.9977 19.7401 71.2435 19.9524C71.4893 20.1647 71.9111 20.3351 72.5089 20.4636L74.8386 20.9329C76.0901 21.1899 77.0231 21.6033 77.6377 22.1732C78.2522 22.743 78.5595 23.4917 78.5595 24.4191C78.5595 25.2627 78.3109 26.0029 77.8136 26.6398C77.322 27.2767 76.646 27.774 75.7856 28.1315C74.9308 28.4835 73.9447 28.6595 72.8274 28.6595C71.1234 28.6595 69.7658 28.3047 68.7546 27.5952C67.7489 26.8801 67.1595 25.908 66.9863 24.6789L70.4977 24.4945C70.6038 25.0141 70.8608 25.4107 71.2686 25.6845C71.6765 25.9527 72.1989 26.0867 72.8358 26.0867C73.4615 26.0867 73.9643 25.9666 74.3442 25.7264C74.7297 25.4806 74.9252 25.1649 74.9308 24.7794C74.9252 24.4554 74.7884 24.19 74.5202 23.9833C74.252 23.771 73.8386 23.609 73.2799 23.4972L71.0508 23.0531C69.7937 22.8017 68.8579 22.3659 68.2434 21.7458C67.6344 21.1256 67.3299 20.3351 67.3299 19.3741C67.3299 18.5473 67.5534 17.835 68.0003 17.2372C68.4529 16.6394 69.087 16.1785 69.9027 15.8544C70.7239 15.5304 71.6849 15.3684 72.7855 15.3684C74.4112 15.3684 75.6906 15.712 76.6236 16.3991C77.5622 17.0863 78.1097 18.0221 78.2662 19.2065ZM84.0423 24.704L84.0507 20.4217H84.5702L88.6933 15.536H92.7913L87.2519 22.0056H86.4055L84.0423 24.704ZM80.8075 28.4081V11.2453H84.3775V28.4081H80.8075ZM88.8526 28.4081L85.0647 22.8017L87.4447 20.2792L93.0343 28.4081H88.8526ZM100.694 28.4081H94.6098V11.2453H100.744C102.47 11.2453 103.957 11.5889 105.202 12.2761C106.448 12.9576 107.406 13.9381 108.077 15.2175C108.753 16.4969 109.091 18.0277 109.091 19.8099C109.091 21.5977 108.753 23.1341 108.077 24.4191C107.406 25.704 106.443 26.6901 105.186 27.3773C103.934 28.0645 102.437 28.4081 100.694 28.4081ZM98.2385 25.299H100.543C101.616 25.299 102.518 25.109 103.25 24.7291C103.987 24.3436 104.54 23.7486 104.909 22.9441C105.283 22.134 105.471 21.0893 105.471 19.8099C105.471 18.5417 105.283 17.5053 104.909 16.7008C104.54 15.8963 103.99 15.3041 103.258 14.9242C102.526 14.5443 101.624 14.3544 100.551 14.3544H98.2385V25.299ZM117.578 28.6595C116.254 28.6595 115.114 28.3913 114.159 27.855C113.209 27.3131 112.477 26.5477 111.963 25.5588C111.449 24.5643 111.192 23.3883 111.192 22.0307C111.192 20.7066 111.449 19.5445 111.963 18.5445C112.477 17.5445 113.201 16.7651 114.134 16.2064C115.072 15.6477 116.173 15.3684 117.436 15.3684C118.285 15.3684 119.075 15.5053 119.807 15.779C120.545 16.0472 121.187 16.4522 121.735 16.9941C122.288 17.5361 122.718 18.2177 123.025 19.0389C123.332 19.8546 123.486 20.81 123.486 21.905V22.8855H112.617V20.6731H120.126C120.126 20.1591 120.014 19.7038 119.79 19.3071C119.567 18.9104 119.257 18.6004 118.86 18.3769C118.469 18.1478 118.014 18.0333 117.494 18.0333C116.952 18.0333 116.472 18.159 116.053 18.4104C115.639 18.6562 115.315 18.9887 115.081 19.4077C114.846 19.8211 114.726 20.282 114.72 20.7904V22.8939C114.72 23.5308 114.838 24.0811 115.072 24.5448C115.313 25.0085 115.651 25.366 116.086 25.6174C116.522 25.8689 117.039 25.9946 117.637 25.9946C118.033 25.9946 118.397 25.9387 118.726 25.827C119.056 25.7152 119.338 25.5476 119.573 25.3241C119.807 25.1007 119.986 24.8269 120.109 24.5029L123.411 24.7208C123.243 25.5141 122.9 26.2069 122.38 26.7991C121.866 27.3857 121.201 27.8438 120.385 28.1734C119.575 28.4975 118.64 28.6595 117.578 28.6595ZM131.632 28.6595C130.313 28.6595 129.179 28.3801 128.229 27.8215C127.285 27.2572 126.559 26.475 126.05 25.475C125.548 24.4749 125.296 23.324 125.296 22.0223C125.296 20.7038 125.55 19.5473 126.059 18.5529C126.573 17.5528 127.302 16.7735 128.246 16.2148C129.19 15.6505 130.313 15.3684 131.615 15.3684C132.738 15.3684 133.721 15.5723 134.565 15.9801C135.408 16.388 136.076 16.9606 136.568 17.6981C137.059 18.4356 137.33 19.3015 137.381 20.296H134.012C133.917 19.6535 133.665 19.1367 133.258 18.7456C132.855 18.349 132.327 18.1506 131.674 18.1506C131.121 18.1506 130.637 18.3015 130.224 18.6032C129.816 18.8993 129.498 19.3322 129.269 19.9021C129.039 20.472 128.925 21.1619 128.925 21.972C128.925 22.7933 129.037 23.4917 129.26 24.0671C129.489 24.6425 129.81 25.0811 130.224 25.3828C130.637 25.6845 131.121 25.8353 131.674 25.8353C132.081 25.8353 132.447 25.7515 132.771 25.5839C133.101 25.4163 133.372 25.1733 133.584 24.8548C133.802 24.5308 133.945 24.1425 134.012 23.69H137.381C137.325 24.6733 137.057 25.5392 136.576 26.2879C136.101 27.0309 135.445 27.612 134.607 28.031C133.769 28.45 132.777 28.6595 131.632 28.6595ZM142.901 24.704L142.91 20.4217H143.429L147.552 15.536H151.65L146.111 22.0056H145.264L142.901 24.704ZM139.666 28.4081V11.2453H143.236V28.4081H139.666ZM147.711 28.4081L143.924 22.8017L146.304 20.2792L151.893 28.4081H147.711Z" fill="#E1E1E6"/>
<path d="M7.37463 7.69183L13.766 3.4415V31.8656L7.37463 36.3816V7.69183Z" fill="url(#paint0_linear_8_13)"/>
<path d="M0 7.05745L6.39135 3.4415V27.6232L0 31.4651V7.05745Z" fill="url(#paint1_linear_8_13)"/>
<path d="M14.7493 11.3712L21.1406 7.37463V34.1018L14.7493 38.3481V11.3712Z" fill="url(#paint2_linear_8_13)"/>
<path d="M22.1239 3.93314L28.5153 0V26.3029L22.1239 30.4818V3.93314Z" fill="url(#paint3_linear_8_13)"/>
<path d="M29.4985 13.766L35.8899 9.83286V36.1357L29.4985 40.3147V13.766Z" fill="url(#paint4_linear_8_13)"/>
<defs>
<linearGradient id="paint0_linear_8_13" x1="7.59352" y1="8.86456" x2="18.4933" y2="11.1693" gradientUnits="userSpaceOnUse">
<stop stop-color="#BDFF00"/>
<stop offset="1" stop-color="#B6B6B6" stop-opacity="0.1"/>
</linearGradient>
<linearGradient id="paint1_linear_8_13" x1="0.218882" y1="8.05514" x2="10.9435" y2="10.7206" gradientUnits="userSpaceOnUse">
<stop stop-color="#BDFF00"/>
<stop offset="1" stop-color="#B6B6B6" stop-opacity="0.1"/>
</linearGradient>
<linearGradient id="paint2_linear_8_13" x1="14.9681" y1="12.4739" x2="25.8071" y2="14.9113" gradientUnits="userSpaceOnUse">
<stop stop-color="#BDFF00"/>
<stop offset="1" stop-color="#B6B6B6" stop-opacity="0.1"/>
</linearGradient>
<linearGradient id="paint3_linear_8_13" x1="22.3428" y1="5.01835" x2="33.1648" y2="7.49117" gradientUnits="userSpaceOnUse">
<stop stop-color="#BDFF00"/>
<stop offset="1" stop-color="#B6B6B6" stop-opacity="0.1"/>
</linearGradient>
<linearGradient id="paint4_linear_8_13" x1="29.7174" y1="14.8512" x2="40.5395" y2="17.324" gradientUnits="userSpaceOnUse">
<stop stop-color="#BDFF00"/>
<stop offset="1" stop-color="#B6B6B6" stop-opacity="0.1"/>
</linearGradient>
</defs>
</svg>
