<svg width="316" height="82" viewBox="0 0 316 82" fill="none" xmlns="http://www.w3.org/2000/svg">
<path d="M86.7045 28.1761V22.0909H115.375V28.1761H104.688V57H97.392V28.1761H86.7045ZM123.864 57.4943C122.193 57.4943 120.705 57.2045 119.398 56.625C118.091 56.0341 117.057 55.1648 116.295 54.017C115.545 52.858 115.17 51.4148 115.17 49.6875C115.17 48.233 115.438 47.0114 115.972 46.0227C116.506 45.0341 117.233 44.2386 118.153 43.6364C119.074 43.0341 120.119 42.5795 121.29 42.2727C122.472 41.9659 123.71 41.75 125.006 41.625C126.528 41.4659 127.756 41.3182 128.688 41.1818C129.619 41.0341 130.295 40.8182 130.716 40.5341C131.136 40.25 131.347 39.8295 131.347 39.2727V39.1705C131.347 38.0909 131.006 37.2557 130.324 36.6648C129.653 36.0739 128.699 35.7784 127.46 35.7784C126.153 35.7784 125.114 36.0682 124.341 36.6477C123.568 37.2159 123.057 37.9318 122.807 38.7955L116.091 38.25C116.432 36.6591 117.102 35.2841 118.102 34.125C119.102 32.9545 120.392 32.0568 121.972 31.4318C123.563 30.7955 125.403 30.4773 127.494 30.4773C128.949 30.4773 130.341 30.6477 131.67 30.9886C133.011 31.3295 134.199 31.858 135.233 32.5739C136.278 33.2898 137.102 34.2102 137.705 35.3352C138.307 36.4489 138.608 37.7841 138.608 39.3409V57H131.722V53.3693H131.517C131.097 54.1875 130.534 54.9091 129.83 55.5341C129.125 56.1477 128.278 56.6307 127.29 56.983C126.301 57.3239 125.159 57.4943 123.864 57.4943ZM125.943 52.483C127.011 52.483 127.955 52.2727 128.773 51.8523C129.591 51.4205 130.233 50.8409 130.699 50.1136C131.165 49.3864 131.398 48.5625 131.398 47.642V44.8636C131.17 45.0114 130.858 45.1477 130.46 45.2727C130.074 45.3864 129.636 45.4943 129.148 45.5966C128.659 45.6875 128.17 45.7727 127.682 45.8523C127.193 45.9205 126.75 45.983 126.352 46.0398C125.5 46.1648 124.756 46.3636 124.119 46.6364C123.483 46.9091 122.989 47.2784 122.636 47.7443C122.284 48.1989 122.108 48.767 122.108 49.4489C122.108 50.4375 122.466 51.1932 123.182 51.7159C123.909 52.2273 124.83 52.483 125.943 52.483ZM166.026 38.2841L159.378 38.6932C159.264 38.125 159.02 37.6136 158.645 37.1591C158.27 36.6932 157.776 36.3239 157.162 36.0511C156.56 35.767 155.838 35.625 154.997 35.625C153.872 35.625 152.923 35.8636 152.151 36.3409C151.378 36.8068 150.991 37.4318 150.991 38.2159C150.991 38.8409 151.241 39.3693 151.741 39.8011C152.241 40.233 153.099 40.5795 154.315 40.8409L159.054 41.7955C161.599 42.3182 163.497 43.1591 164.747 44.3182C165.997 45.4773 166.622 47 166.622 48.8864C166.622 50.6023 166.116 52.108 165.105 53.4034C164.105 54.6989 162.73 55.7102 160.98 56.4375C159.241 57.1534 157.236 57.5114 154.963 57.5114C151.497 57.5114 148.736 56.7898 146.679 55.3466C144.634 53.892 143.435 51.9148 143.082 49.4148L150.224 49.0398C150.44 50.0966 150.963 50.9034 151.793 51.4602C152.622 52.0057 153.685 52.2784 154.98 52.2784C156.253 52.2784 157.276 52.0341 158.048 51.5455C158.832 51.0455 159.23 50.4034 159.241 49.6193C159.23 48.9602 158.952 48.4205 158.406 48C157.861 47.5682 157.02 47.2386 155.884 47.0114L151.349 46.108C148.793 45.5966 146.889 44.7102 145.639 43.4489C144.401 42.1875 143.781 40.5795 143.781 38.625C143.781 36.9432 144.236 35.4943 145.145 34.2784C146.065 33.0625 147.355 32.125 149.014 31.4659C150.685 30.8068 152.639 30.4773 154.878 30.4773C158.185 30.4773 160.787 31.1761 162.685 32.5739C164.594 33.9716 165.707 35.875 166.026 38.2841ZM177.774 49.4659L177.791 40.7557H178.848L187.234 30.8182H195.57L184.303 43.9773H182.581L177.774 49.4659ZM171.195 57V22.0909H178.456V57H171.195ZM187.558 57L179.854 45.5966L184.695 40.4659L196.064 57H187.558ZM211.643 57H199.268V22.0909H211.746C215.257 22.0909 218.28 22.7898 220.814 24.1875C223.348 25.5739 225.297 27.5682 226.661 30.1705C228.036 32.7727 228.723 35.8864 228.723 39.5114C228.723 43.1477 228.036 46.2727 226.661 48.8864C225.297 51.5 223.337 53.5057 220.78 54.9034C218.234 56.3011 215.189 57 211.643 57ZM206.649 50.6761H211.337C213.518 50.6761 215.354 50.2898 216.842 49.517C218.342 48.733 219.467 47.5227 220.217 45.8864C220.979 44.2386 221.359 42.1136 221.359 39.5114C221.359 36.9318 220.979 34.8239 220.217 33.1875C219.467 31.5511 218.348 30.3466 216.859 29.5739C215.371 28.8011 213.536 28.4148 211.354 28.4148H206.649V50.6761ZM245.986 57.5114C243.293 57.5114 240.974 56.9659 239.031 55.875C237.099 54.7727 235.611 53.2159 234.565 51.2045C233.52 49.1818 232.997 46.7898 232.997 44.0284C232.997 41.3352 233.52 38.9716 234.565 36.9375C235.611 34.9034 237.082 33.3182 238.98 32.1818C240.889 31.0455 243.128 30.4773 245.696 30.4773C247.423 30.4773 249.031 30.7557 250.52 31.3125C252.02 31.858 253.327 32.6818 254.44 33.7841C255.565 34.8864 256.44 36.2727 257.065 37.9432C257.69 39.6023 258.003 41.5455 258.003 43.7727V45.767H235.895V41.267H251.168C251.168 40.2216 250.94 39.2955 250.486 38.4886C250.031 37.6818 249.401 37.0511 248.594 36.5966C247.798 36.1307 246.872 35.8977 245.815 35.8977C244.713 35.8977 243.736 36.1534 242.884 36.6648C242.043 37.1648 241.384 37.8409 240.906 38.6932C240.429 39.5341 240.185 40.4716 240.173 41.5057V45.7841C240.173 47.0795 240.412 48.1989 240.889 49.142C241.378 50.0852 242.065 50.8125 242.952 51.3239C243.838 51.8352 244.889 52.0909 246.105 52.0909C246.912 52.0909 247.651 51.9773 248.321 51.75C248.991 51.5227 249.565 51.1818 250.043 50.7273C250.52 50.2727 250.884 49.7159 251.134 49.0568L257.849 49.5C257.509 51.1136 256.81 52.5227 255.753 53.7273C254.707 54.9205 253.355 55.8523 251.696 56.5227C250.048 57.1818 248.145 57.5114 245.986 57.5114ZM274.571 57.5114C271.889 57.5114 269.582 56.9432 267.651 55.8068C265.73 54.6591 264.253 53.0682 263.219 51.0341C262.196 49 261.685 46.6591 261.685 44.0114C261.685 41.3295 262.202 38.9773 263.236 36.9545C264.281 34.9205 265.764 33.3352 267.685 32.1989C269.605 31.0511 271.889 30.4773 274.537 30.4773C276.821 30.4773 278.821 30.892 280.537 31.7216C282.253 32.5511 283.611 33.7159 284.611 35.2159C285.611 36.7159 286.162 38.4773 286.264 40.5H279.412C279.219 39.1932 278.707 38.142 277.878 37.3466C277.06 36.5398 275.986 36.1364 274.656 36.1364C273.531 36.1364 272.548 36.4432 271.707 37.0568C270.878 37.6591 270.23 38.5398 269.764 39.6989C269.298 40.858 269.065 42.2614 269.065 43.9091C269.065 45.5795 269.293 47 269.747 48.1705C270.213 49.3409 270.866 50.233 271.707 50.8466C272.548 51.4602 273.531 51.767 274.656 51.767C275.486 51.767 276.23 51.5966 276.889 51.2557C277.56 50.9148 278.111 50.4205 278.543 49.7727C278.986 49.1136 279.276 48.3239 279.412 47.4034H286.264C286.151 49.4034 285.605 51.1648 284.628 52.6875C283.662 54.1989 282.327 55.3807 280.622 56.233C278.918 57.0852 276.901 57.5114 274.571 57.5114ZM297.493 49.4659L297.51 40.7557H298.567L306.953 30.8182H315.288L304.021 43.9773H302.3L297.493 49.4659ZM290.913 57V22.0909H298.175V57H290.913ZM307.277 57L299.572 45.5966L304.413 40.4659L315.783 57H307.277Z" fill="#E1E1E6"/>
<path d="M15 15.6452L28 7V64.8145L15 74V15.6452Z" fill="url(#paint0_linear_6_5)"/>
<path d="M0 14.3548L13 7V56.1855L0 64V14.3548Z" fill="url(#paint1_linear_6_5)"/>
<path d="M30 23.129L43 15V69.3629L30 78V23.129Z" fill="url(#paint2_linear_6_5)"/>
<path d="M45 8L58 0V53.5L45 62V8Z" fill="url(#paint3_linear_6_5)"/>
<path d="M60 28L73 20V73.5L60 82V28Z" fill="url(#paint4_linear_6_5)"/>
<defs>
<linearGradient id="paint0_linear_6_5" x1="15.4452" y1="18.0305" x2="37.6153" y2="22.7183" gradientUnits="userSpaceOnUse">
<stop stop-color="#BDFF00"/>
<stop offset="1" stop-color="#B6B6B6" stop-opacity="0.1"/>
</linearGradient>
<linearGradient id="paint1_linear_6_5" x1="0.445205" y1="16.3841" x2="22.259" y2="21.8058" gradientUnits="userSpaceOnUse">
<stop stop-color="#BDFF00"/>
<stop offset="1" stop-color="#B6B6B6" stop-opacity="0.1"/>
</linearGradient>
<linearGradient id="paint2_linear_6_5" x1="30.4452" y1="25.372" x2="52.4917" y2="30.3296" gradientUnits="userSpaceOnUse">
<stop stop-color="#BDFF00"/>
<stop offset="1" stop-color="#B6B6B6" stop-opacity="0.1"/>
</linearGradient>
<linearGradient id="paint3_linear_6_5" x1="45.4452" y1="10.2073" x2="67.4573" y2="15.237" gradientUnits="userSpaceOnUse">
<stop stop-color="#BDFF00"/>
<stop offset="1" stop-color="#B6B6B6" stop-opacity="0.1"/>
</linearGradient>
<linearGradient id="paint4_linear_6_5" x1="60.4452" y1="30.2073" x2="82.4573" y2="35.237" gradientUnits="userSpaceOnUse">
<stop stop-color="#BDFF00"/>
<stop offset="1" stop-color="#B6B6B6" stop-opacity="0.1"/>
</linearGradient>
</defs>
</svg>
